PathFileType  4	(X/Y/Z) C:\Users\Jenny Yong\Documents\NMBL\GaitRetraining\Subject20\WeekOne\
DataRate	CameraRate	NumFrames	NumMarkers	Units	OrigDataRate	OrigDataStartFrame	OrigNumFrames
  200.0		  200.0		    8		     42		 mm	  200.0	      37	    289
Frame#	Time	R.Shoulder			L.Shoulder			R.Clavicle			L.Clavicle			R.Biceps			R.Elbow			R.Forearm			R.Wrist			L.Biceps			L.Elbow			L.Forearm			L.Wrist			R.ASIS			L.ASIS			R.PSIS			S2			L.PSIS			R.TH1			R.TH2			R.TH3			R.Knee			R.SH1			R.SH2			R.SH3			R.SH4			R.Ankle			R.MAnkle			R.Heel			R.MT5			R.Toe			L.TH1			L.TH2			L.TH3			L.TH4			L.Knee			L.SH1			L.SH2			L.SH3			L.Ankle			L.Heel			L.MT5			L.Toe			
		X1	Y1	Z1	X2	Y2	Z2	X3	Y3	Z3	X4	Y4	Z4	X5	Y5	Z5	X6	Y6	Z6	X7	Y7	Z7	X8	Y8	Z8	X9	Y9	Z9	X10	Y10	Z10	X11	Y11	Z11	X12	Y12	Z12	X13	Y13	Z13	X14	Y14	Z14	X15	Y15	Z15	X16	Y16	Z16	X17	Y17	Z17	X18	Y18	Z18	X19	Y19	Z19	X20	Y20	Z20	X21	Y21	Z21	X22	Y22	Z22	X23	Y23	Z23	X24	Y24	Z24	X25	Y25	Z25	X26	Y26	Z26	X27	Y27	Z27	X28	Y28	Z28	X29	Y29	Z29	X30	Y30	Z30	X31	Y31	Z31	X32	Y32	Z32	X33	Y33	Z33	X34	Y34	Z34	X35	Y35	Z35	X36	Y36	Z36	X37	Y37	Z37	X38	Y38	Z38	X39	Y39	Z39	X40	Y40	Z40	X41	Y41	Z41	X42	Y42	Z42	

37	0.18000	15.596	1399.947	-72.348	135.279	1397.637	-360.385	116.136	1348.739	-178.821	131.132	1348.577	-218.645	-150.253	1319.845	-63.883	-235.117	1224.736	15.977	-124.814	1184.324	-35.354	-29.761	1142.617	17.464	150.474	1234.658	-454.258	145.009	1119.613	-510.711	184.380	1101.931	-416.714	244.919	1204.009	-335.224	63.422	982.695	-87.766	82.882	933.609	-320.533	-96.931	1012.391	-168.128	-93.211	1002.876	-208.697	-87.508	1009.745	-262.880	95.781	757.660	-40.408	3.431	711.239	-70.458	61.992	597.351	-90.036	166.044	528.809	-108.087	195.060	447.077	-111.434	187.985	335.119	-100.817	110.878	450.907	-112.756	102.437	330.039	-116.319	163.706	134.998	-158.419	170.444	173.383	-233.617	91.945	99.558	-197.494	275.992	81.908	-169.532	306.612	131.413	-223.610	-14.268	753.957	-365.584	-72.276	638.856	-336.839	-106.253	813.784	-375.599	-177.502	703.112	-336.643	-210.624	543.587	-323.020	-233.450	442.865	-303.443	-304.289	501.748	-327.841	-370.913	406.087	-336.179	-445.787	224.539	-313.458	-515.994	262.751	-265.631	-457.592	95.195	-311.293	-415.641	70.518	-253.522
38	0.18500	28.850	1400.871	-72.579	149.195	1397.929	-359.639	128.238	1350.546	-177.623	144.032	1350.144	-218.174	-137.080	1321.303	-63.470	-222.087	1227.069	17.017	-113.348	1185.608	-34.710	-17.204	1144.390	19.295	164.419	1235.077	-453.638	158.475	1119.743	-509.991	197.573	1102.673	-415.919	258.303	1204.684	-334.741	77.030	983.547	-87.452	96.950	934.467	-319.812	-82.052	1013.664	-168.285	-77.049	1003.128	-208.406	-72.787	1010.800	-263.007	108.653	756.340	-39.857	16.018	710.893	-69.567	72.718	595.797	-89.192	176.181	526.507	-106.618	208.336	445.676	-110.688	205.947	333.547	-99.977	124.307	445.656	-110.388	120.725	324.620	-113.933	189.201	132.339	-157.340	193.535	170.878	-232.633	119.158	92.850	-195.400	304.101	85.416	-169.460	331.681	136.654	-223.993	-0.394	755.020	-365.733	-59.597	640.521	-336.922	-91.823	815.070	-375.375	-163.816	705.234	-336.013	-197.373	545.400	-322.421	-221.570	444.485	-302.508	-290.480	504.250	-328.445	-358.784	409.761	-337.134	-437.770	230.242	-314.570	-509.418	272.621	-268.802	-452.040	100.535	-311.163	-412.207	75.499	-253.110
39	0.19000	41.898	1401.582	-72.720	163.019	1398.037	-359.052	141.955	1351.442	-176.954	156.792	1350.154	-217.049	-123.919	1322.624	-62.829	-209.449	1229.313	18.131	-101.432	1187.197	-33.524	-3.784	1145.816	21.081	178.617	1234.897	-452.766	171.553	1119.646	-509.327	210.650	1102.936	-415.041	271.895	1204.973	-334.216	90.312	983.632	-87.482	111.026	935.564	-319.311	-67.915	1014.664	-168.297	-62.937	1004.642	-208.396	-58.703	1011.884	-263.006	121.804	754.742	-39.074	28.342	710.265	-68.805	83.047	594.364	-88.049	187.946	523.288	-106.703	221.502	444.204	-110.105	223.454	332.130	-99.123	137.546	440.920	-108.405	138.773	319.593	-111.903	213.395	130.163	-155.923	215.630	168.883	-231.441	145.556	86.989	-193.868	330.943	89.285	-168.837	355.161	142.494	-222.816	13.676	756.324	-365.911	-46.457	641.968	-336.996	-77.418	816.249	-375.294	-149.966	706.742	-335.444	-182.828	545.738	-321.656	-208.616	444.990	-301.388	-275.764	505.894	-328.932	-345.316	412.269	-338.082	-427.760	235.552	-314.561	-501.361	279.884	-271.812	-447.584	107.339	-311.801	-408.308	81.459	-252.193
40	0.19500	54.994	1402.070	-72.644	176.777	1397.925	-358.604	155.128	1351.941	-176.540	170.784	1350.570	-216.509	-110.458	1323.442	-62.218	-196.090	1230.761	19.337	-87.681	1188.742	-32.124	9.333	1147.184	23.029	191.182	1234.786	-452.322	184.192	1119.248	-508.886	223.945	1103.132	-414.632	285.254	1204.997	-333.971	103.842	982.817	-87.606	125.302	936.565	-319.038	-54.576	1016.286	-167.670	-50.268	1006.190	-208.470	-43.944	1012.498	-263.023	134.407	752.128	-37.843	40.619	709.485	-67.826	93.685	592.200	-86.676	198.093	520.718	-106.109	234.485	442.850	-109.345	239.754	330.902	-98.074	150.746	436.505	-106.640	155.972	315.661	-109.701	235.984	128.653	-154.320	236.462	166.838	-229.911	170.943	81.282	-192.121	355.243	92.801	-167.621	377.048	147.030	-221.910	27.641	757.344	-366.016	-33.369	643.281	-337.446	-62.164	816.670	-374.128	-135.064	707.565	-334.636	-166.971	544.992	-320.926	-195.764	444.819	-299.995	-260.080	506.859	-329.614	-333.143	415.963	-339.118	-419.908	241.206	-315.405	-493.779	286.933	-274.848	-441.192	113.302	-311.595	-405.103	87.533	-250.516
41	0.20000	68.462	1402.332	-72.563	190.296	1397.467	-357.877	168.678	1351.975	-175.990	184.521	1350.407	-215.703	-96.897	1323.684	-61.483	-182.332	1231.935	20.986	-74.702	1189.577	-30.693	22.771	1148.670	25.063	204.699	1234.432	-452.057	196.708	1118.756	-508.577	237.023	1102.685	-414.027	298.805	1204.621	-333.789	117.242	982.365	-87.481	139.140	937.238	-318.835	-40.778	1016.435	-167.208	-35.737	1006.477	-208.122	-30.522	1013.195	-262.616	147.456	750.235	-37.222	53.650	707.993	-67.060	104.632	590.260	-85.229	208.396	517.876	-105.254	247.265	441.551	-108.800	256.010	329.903	-96.903	163.965	432.833	-105.319	173.678	310.981	-108.784	257.347	127.269	-151.671	256.555	164.833	-228.277	194.526	76.797	-190.338	378.232	96.353	-165.694	397.315	150.949	-220.003	42.563	758.303	-366.200	-18.521	643.415	-337.430	-47.063	816.801	-373.676	-120.673	708.141	-333.861	-151.278	544.419	-320.161	-182.176	444.058	-298.617	-245.588	508.542	-330.464	-319.755	418.976	-340.154	-411.747	246.642	-315.972	-485.652	293.651	-278.128	-434.275	119.006	-311.252	-400.365	94.274	-248.605
42	0.20500	81.527	1402.212	-72.230	203.906	1396.787	-357.691	182.542	1351.655	-175.072	198.210	1350.187	-215.069	-83.163	1323.699	-60.643	-168.594	1232.642	22.826	-61.187	1190.073	-29.045	36.966	1149.469	26.977	217.731	1233.288	-451.753	209.379	1118.062	-508.115	249.993	1102.330	-413.761	312.484	1204.079	-333.734	130.146	980.789	-87.603	153.085	937.965	-318.942	-27.293	1016.027	-166.647	-21.969	1006.255	-207.946	-16.619	1013.237	-262.343	160.883	747.847	-36.701	66.548	706.521	-66.201	115.594	587.527	-83.474	219.390	514.954	-104.501	259.900	440.125	-108.154	268.735	330.493	-94.609	177.787	428.746	-105.501	188.443	308.353	-106.699	277.099	126.130	-149.467	274.715	162.393	-225.874	216.711	72.251	-188.277	398.773	98.798	-162.879	416.276	154.043	-217.445	56.689	758.822	-365.952	-3.870	643.423	-337.644	-33.607	816.406	-373.431	-104.752	707.756	-333.468	-134.576	542.762	-319.457	-168.359	443.080	-297.611	-228.737	508.912	-330.995	-306.018	421.680	-340.956	-403.119	251.780	-316.600	-478.137	300.882	-281.836	-427.820	125.793	-311.257	-395.891	100.822	-246.865
43	0.21000	95.407	1402.137	-71.916	217.173	1396.068	-357.277	196.356	1351.375	-174.548	211.733	1349.778	-214.588	-68.943	1323.275	-59.624	-154.341	1232.763	24.680	-47.935	1190.128	-27.430	51.671	1149.775	29.186	230.499	1232.281	-451.338	221.682	1116.952	-507.635	263.308	1101.293	-413.483	325.276	1202.878	-333.889	143.796	979.611	-87.410	167.205	938.683	-319.033	-14.139	1015.552	-166.080	-7.441	1005.351	-206.868	-3.161	1013.009	-261.647	174.132	745.565	-36.340	79.948	704.871	-65.509	127.440	584.910	-82.473	230.573	512.085	-103.771	271.835	438.639	-107.518	283.310	329.026	-93.601	190.066	425.920	-104.898	203.344	305.297	-105.654	294.842	124.935	-147.039	292.919	161.346	-224.292	237.362	68.360	-186.048	417.621	100.726	-159.717	433.920	156.025	-214.323	72.765	758.582	-365.575	11.349	643.033	-337.758	-17.622	816.163	-373.377	-88.468	706.487	-333.386	-117.177	540.649	-318.552	-153.464	441.816	-296.013	-211.709	509.140	-331.396	-291.621	424.070	-341.738	-394.147	257.385	-316.801	-469.933	307.954	-285.200	-420.288	131.736	-310.777	-390.907	108.123	-244.915
44	0.21500	109.053	1401.450	-71.422	230.457	1394.604	-357.110	209.782	1350.163	-173.703	225.162	1348.596	-213.755	-55.119	1322.366	-58.521	-140.184	1232.395	27.009	-33.064	1189.979	-25.337	66.489	1149.752	31.434	243.196	1230.910	-451.028	233.392	1115.566	-507.159	275.385	1099.957	-413.360	338.955	1201.347	-334.045	157.045	978.109	-87.522	181.491	939.444	-319.165	-1.015	1014.035	-165.122	6.397	1004.145	-206.147	10.813	1012.277	-260.930	187.665	743.404	-36.006	92.685	703.276	-64.750	138.676	582.846	-81.582	241.744	509.262	-102.963	283.829	436.829	-106.836	296.499	327.307	-92.535	202.459	422.669	-104.876	216.980	302.566	-105.070	311.440	123.754	-144.560	309.004	159.006	-222.412	254.991	65.285	-183.792	434.735	101.985	-155.800	450.263	156.856	-210.788	87.928	757.781	-365.258	28.170	642.074	-337.688	-1.304	814.819	-373.309	-72.655	704.754	-333.676	-99.571	538.097	-317.407	-138.453	440.208	-295.411	-195.217	509.134	-331.583	-276.414	426.089	-342.558	-384.166	262.097	-317.104	-460.976	315.521	-288.860	-413.199	138.579	-310.702	-386.071	115.142	-243.335
